FILE "Amiga CD32 Gamer Vol. 10 (1995-03-09)(Paragon Publishing)(GB).img" BINARY
  TRACK 01 MODE1/2352
    INDEX 01 00:00:00
  TRACK 02 AUDIO
    PREGAP 00:02:00
    INDEX 01 05:57:31
  TRACK 03 AUDIO
    INDEX 01 07:12:54
  TRACK 04 AUDIO
    INDEX 01 09:05:11
  TRACK 05 AUDIO
    INDEX 01 10:40:38
  TRACK 06 AUDIO
    INDEX 01 12:11:45
  TRACK 07 AUDIO
    INDEX 01 13:39:53
  TRACK 08 AUDIO
    INDEX 01 15:10:60
  TRACK 09 AUDIO
    INDEX 01 17:10:04
  TRACK 10 AUDIO
    INDEX 01 18:42:32
